<svg width="543" height="531" viewBox="0 0 543 531" fill="none" xmlns="http://www.w3.org/2000/svg">
<g clip-path="url(#clip0_601:18)">
<path d="M1.17125 13.2173C-2.52875 28.4647 2.77125 56.243 13.7712 78.8512C19.4712 90.5934 24.2712 97.8666 33.6712 108.733C42.2712 118.722 50.5712 125.645 60.8712 131.253C64.8712 133.444 67.9712 135.722 67.7712 136.248C67.5712 136.861 64.9712 137.212 61.4712 137.124C51.6712 136.949 37.5712 129.676 26.1712 118.722C23.3712 116.006 20.7712 113.99 20.3712 114.253C19.7712 114.867 24.3712 122.928 30.8712 132.392C46.8712 155.702 64.7712 171.825 81.2712 177.609C93.9712 182.165 91.6712 184.269 76.4712 181.99C71.5712 181.289 67.4712 180.851 67.2712 181.026C65.2712 182.779 81.3712 193.908 94.8712 200.129C109.471 206.877 126.471 211.083 155.371 215.201L159.071 215.727V278.382V341.036L161.471 350.413C168.271 376.438 177.471 392.036 195.071 407.546C200.871 412.629 205.771 416.046 210.571 418.237C218.971 422.093 230.571 425.598 237.871 426.387L243.071 427V320.005V213.011L249.771 208.629C257.871 203.459 269.871 197.763 275.971 196.361C279.971 195.485 280.571 195.573 283.571 197.413C291.971 202.671 299.371 212.222 320.971 245.609C329.971 259.454 338.871 272.335 340.771 274.263C345.471 279.083 348.771 279.083 357.171 274.176C371.571 265.763 416.671 222.913 469.171 167.707C493.071 142.732 502.871 134.408 514.871 129.15C521.371 126.346 528.142 126.115 532.071 125.557C536 125 538 124 539.5 122.5C540.775 121.225 542.071 118.23 542.071 115.5C542.071 111.5 542.071 108 542.071 108V90.9439H536.371C521.771 91.4697 503.171 98.1295 491.071 107.155C482.371 113.727 476.371 119.861 405.671 194.346C368.371 233.779 352.571 249.815 351.071 249.815C348.171 249.815 346.271 246.573 343.971 237.897C339.771 222.124 333.771 203.547 330.371 195.485C325.671 184.444 317.871 170.16 314.571 166.743C311.571 163.588 308.271 162.799 310.071 165.604C311.471 168.057 311.371 168.32 308.771 168.32C305.571 168.32 300.471 164.64 293.371 157.366C283.171 146.939 261.971 129.588 252.571 123.98C235.271 113.64 214.371 104.351 194.571 98.3047C186.171 95.6759 178.071 91.8203 171.771 87.4388C169.471 85.8615 168.871 85.7738 168.071 86.8254C167.371 87.8769 166.271 87.7017 161.371 85.7739C156.971 84.0213 149.971 82.7068 131.571 80.2532C78.5712 73.1553 52.1712 66.4955 33.6712 55.2791C18.2712 45.9028 9.07125 33.8977 4.97125 17.5111C3.87125 13.0421 2.77125 9.18637 2.57125 9.01111C2.47125 8.83585 1.77125 10.7637 1.17125 13.2173Z" fill="url(#paint0_linear_601:18)"/>
<path d="M528.571 150.269C522.271 152.021 518.171 154.212 512.771 158.593C506.372 163.763 487.872 182.341 461.072 210.382C434.471 238.16 428.971 243.593 407.671 263.748C369.771 299.413 354.872 309.49 344.972 305.81C340.972 304.408 330.371 295.119 324.771 288.109C322.271 285.129 314.571 274.351 307.571 264.274C286.971 234.743 277.271 222.65 274.171 222.65C272.871 222.65 271.671 223.964 270.471 226.33C268.871 229.573 268.571 232.99 268.271 250.078C268.271 250.078 268.271 263.5 271 270C272.832 274.362 276.771 278.382 276.771 278.382C290.071 291 302.671 303.707 319.571 321.67C337.571 340.773 347.672 348.835 353.672 348.835C354.872 348.835 358.572 347.083 361.872 344.892C377.372 334.902 383.972 328.768 416.372 293.454C434.072 274.088 449.872 256.913 451.372 255.16C455.472 250.428 457.372 249.377 458.271 251.305C458.572 252.181 458.971 272.861 458.971 297.222C459.072 321.583 459.372 360.578 459.771 383.887L460.372 426.211L465.971 425.686C473.572 424.985 488.271 421.129 495.771 417.887C504.072 414.294 517.271 404.918 523.872 397.907C529.872 391.423 537.171 378.98 539.571 371.181C540.871 367.062 541.371 358.65 542.071 332.624C543.171 292.578 543.371 193.382 542.371 167.619C542.371 167.619 542.133 159 542 152.5C541.986 151.824 542 150.731 541.5 150C540.486 148.517 539.5 148.5 537.5 148.5C534.112 148.5 530.771 149.655 528.571 150.269Z" fill="url(#paint1_linear_601:18)"/>
<path d="M135.56 509H90.9111V499.332L111.478 477.711C116.546 471.939 119.08 467.354 119.08 463.956C119.08 461.202 118.479 459.107 117.278 457.672C116.077 456.236 114.334 455.519 112.049 455.519C109.793 455.519 107.962 456.485 106.556 458.419C105.149 460.323 104.446 462.711 104.446 465.582H89.5928C89.5928 461.656 90.5742 458.038 92.5371 454.728C94.5 451.388 97.2246 448.78 100.711 446.905C104.197 445.03 108.094 444.093 112.4 444.093C119.314 444.093 124.632 445.689 128.353 448.883C132.103 452.076 133.978 456.661 133.978 462.638C133.978 465.157 133.509 467.618 132.571 470.021C131.634 472.394 130.169 474.898 128.177 477.535C126.214 480.143 123.035 483.644 118.641 488.038L110.379 497.574H135.56V509ZM156.565 470.812H163.553C169.09 470.812 171.858 468.102 171.858 462.682C171.858 460.572 171.199 458.858 169.881 457.54C168.562 456.192 166.702 455.519 164.3 455.519C162.337 455.519 160.623 456.09 159.158 457.232C157.723 458.375 157.005 459.796 157.005 461.495H142.195C142.195 458.126 143.133 455.123 145.008 452.486C146.883 449.85 149.476 447.799 152.786 446.334C156.126 444.84 159.788 444.093 163.772 444.093C170.892 444.093 176.487 445.719 180.56 448.971C184.632 452.223 186.668 456.69 186.668 462.374C186.668 465.128 185.818 467.735 184.119 470.196C182.449 472.628 180.003 474.605 176.78 476.129C180.179 477.359 182.845 479.234 184.778 481.754C186.712 484.244 187.679 487.335 187.679 491.026C187.679 496.739 185.481 501.31 181.087 504.737C176.692 508.165 170.921 509.879 163.772 509.879C159.583 509.879 155.687 509.088 152.083 507.506C148.509 505.895 145.799 503.683 143.953 500.87C142.107 498.028 141.185 494.806 141.185 491.202H156.082C156.082 493.165 156.873 494.864 158.455 496.3C160.037 497.735 161.985 498.453 164.3 498.453C166.907 498.453 168.987 497.735 170.54 496.3C172.093 494.835 172.869 492.975 172.869 490.719C172.869 487.496 172.063 485.211 170.452 483.863C168.841 482.516 166.614 481.842 163.772 481.842H156.565V470.812ZM392.42 498.453C394.5 498.453 396.111 497.896 397.254 496.783C398.396 495.641 398.953 494.059 398.924 492.037H412.811C412.811 497.252 410.936 501.529 407.186 504.869C403.465 508.209 398.66 509.879 392.771 509.879C385.857 509.879 380.408 507.711 376.424 503.375C372.439 499.039 370.447 493.033 370.447 485.357V484.742C370.447 479.938 371.326 475.704 373.084 472.042C374.871 468.351 377.435 465.523 380.774 463.561C384.114 461.568 388.069 460.572 392.64 460.572C398.821 460.572 403.729 462.286 407.361 465.714C410.994 469.142 412.811 473.785 412.811 479.645H398.924C398.924 477.184 398.323 475.294 397.122 473.976C395.921 472.657 394.31 471.998 392.288 471.998C388.45 471.998 386.209 474.444 385.564 479.337C385.359 480.89 385.257 483.028 385.257 485.753C385.257 490.528 385.828 493.839 386.971 495.685C388.113 497.53 389.93 498.453 392.42 498.453ZM417.205 484.786C417.205 480.04 418.128 475.821 419.974 472.13C421.819 468.409 424.471 465.553 427.928 463.561C431.385 461.568 435.442 460.572 440.101 460.572C447.22 460.572 452.83 462.784 456.932 467.208C461.033 471.603 463.084 477.594 463.084 485.182V485.709C463.084 493.121 461.019 499.01 456.888 503.375C452.786 507.711 447.22 509.879 440.188 509.879C433.421 509.879 427.986 507.857 423.885 503.814C419.783 499.742 417.571 494.234 417.249 487.291L417.205 484.786ZM432.015 485.709C432.015 490.104 432.703 493.326 434.08 495.377C435.457 497.428 437.493 498.453 440.188 498.453C445.462 498.453 448.157 494.396 448.274 486.28V484.786C448.274 476.261 445.55 471.998 440.101 471.998C435.149 471.998 432.469 475.675 432.059 483.028L432.015 485.709ZM483.606 461.451L484.09 467.032C487.459 462.726 491.985 460.572 497.669 460.572C503.675 460.572 507.732 462.96 509.842 467.735C513.064 462.96 517.723 460.572 523.816 460.572C533.455 460.572 538.406 466.402 538.67 478.062V509H523.816V478.985C523.816 476.554 523.406 474.781 522.586 473.668C521.766 472.555 520.271 471.998 518.104 471.998C515.174 471.998 512.991 473.302 511.556 475.909L511.6 476.524V509H496.746V479.073C496.746 476.583 496.351 474.781 495.56 473.668C494.769 472.555 493.26 471.998 491.033 471.998C488.191 471.998 486.023 473.302 484.529 475.909V509H469.72V461.451H483.606Z" fill="white"/>
<path d="M215.936 484.874C215.936 477.345 217.562 471.412 220.813 467.076C224.065 462.74 228.606 460.572 234.437 460.572C238.685 460.572 242.259 462.242 245.159 465.582V441.5H260.013V509H246.697L245.95 503.902C242.903 507.887 239.036 509.879 234.349 509.879C228.694 509.879 224.212 507.711 220.901 503.375C217.591 499.039 215.936 492.872 215.936 484.874ZM230.745 485.797C230.745 494.234 233.206 498.453 238.128 498.453C241.409 498.453 243.753 497.076 245.159 494.322V476.217C243.812 473.404 241.497 471.998 238.216 471.998C233.646 471.998 231.17 475.689 230.789 483.072L230.745 485.797ZM266.561 484.786C266.561 480.04 267.483 475.821 269.329 472.13C271.175 468.409 273.826 465.553 277.283 463.561C280.74 461.568 284.798 460.572 289.456 460.572C296.575 460.572 302.186 462.784 306.287 467.208C310.389 471.603 312.439 477.594 312.439 485.182V485.709C312.439 493.121 310.374 499.01 306.243 503.375C302.142 507.711 296.575 509.879 289.544 509.879C282.776 509.879 277.342 507.857 273.24 503.814C269.139 499.742 266.927 494.234 266.604 487.291L266.561 484.786ZM281.37 485.709C281.37 490.104 282.059 493.326 283.436 495.377C284.812 497.428 286.849 498.453 289.544 498.453C294.817 498.453 297.513 494.396 297.63 486.28V484.786C297.63 476.261 294.905 471.998 289.456 471.998C284.505 471.998 281.824 475.675 281.414 483.028L281.37 485.709ZM336.214 449.63V461.451H344.036V471.734H336.214V493.487C336.214 495.274 336.536 496.52 337.181 497.223C337.825 497.926 339.1 498.277 341.004 498.277C342.469 498.277 343.699 498.189 344.695 498.014V508.604C342.029 509.454 339.246 509.879 336.346 509.879C331.248 509.879 327.483 508.678 325.052 506.275C322.62 503.873 321.404 500.226 321.404 495.333V471.734H315.34V461.451H321.404V449.63H336.214Z" fill="#F6AE2D"/>
</g>
<defs>
<linearGradient id="paint0_linear_601:18" x1="292.571" y1="310.278" x2="-32.7764" y2="5.11697" gradientUnits="userSpaceOnUse">
<stop stop-color="white"/>
<stop offset="1" stop-color="white" stop-opacity="0"/>
</linearGradient>
<linearGradient id="paint1_linear_601:18" x1="387.571" y1="313.784" x2="585.27" y2="449.044" gradientUnits="userSpaceOnUse">
<stop offset="0.131999" stop-color="white"/>
<stop offset="1" stop-color="white" stop-opacity="0"/>
</linearGradient>
<clipPath id="clip0_601:18">
<rect width="543" height="531" fill="white"/>
</clipPath>
</defs>
</svg>
